<?xml version="1.0" standalone="no"?>
<!DOCTYPE svg PUBLIC "-//W3C//DTD SVG 20010904//EN"
 "http://www.w3.org/TR/2001/REC-SVG-20010904/DTD/svg10.dtd">
<svg version="1.0" xmlns="http://www.w3.org/2000/svg"
 width="512.000000pt" height="512.000000pt" viewBox="0 0 512.000000 512.000000"
 preserveAspectRatio="xMidYMid meet">

<g transform="translate(0.000000,512.000000) scale(0.100000,-0.100000)"
fill="#000000" stroke="none">
<path d="M1625 5114 c-588 -36 -1018 -125 -1306 -270 -136 -68 -230 -150 -280
-244 l-24 -45 0 -1940 0 -1940 27 -58 c170 -362 1060 -639 1973 -614 567 16
1031 115 1396 297 131 65 208 120 285 202 103 110 108 128 112 365 l3 202 32
5 c136 21 177 30 254 52 431 124 784 473 939 928 48 139 68 277 68 456 0 240
-42 430 -139 628 -214 439 -601 729 -1064 796 l-86 12 -5 305 c-5 297 -6 305
-29 353 -118 239 -603 420 -1321 491 -147 15 -702 27 -835 19z m600 -214 c507
-30 916 -113 1170 -237 137 -67 215 -143 201 -199 -8 -29 -91 -112 -121 -120
-11 -2 -69 14 -128 36 -530 200 -1494 264 -2257 149 -245 -37 -493 -98 -640
-158 -41 -17 -83 -31 -92 -31 -24 0 -125 95 -132 125 -14 56 46 118 184 189
358 185 1113 287 1815 246z m-105 -530 c235 -9 442 -28 620 -56 176 -28 438
-89 427 -100 -11 -11 -155 -47 -297 -74 -320 -61 -568 -82 -965 -82 -492 0
-831 40 -1220 144 -38 10 -39 11 -16 19 53 21 233 62 365 84 205 35 415 56
631 64 105 5 197 8 205 9 8 1 121 -3 250 -8z m-1680 -305 c583 -225 1549 -286
2376 -150 285 48 533 122 702 210 l82 44 0 -1725 c0 -1499 -2 -1729 -15 -1753
-41 -80 -241 -205 -457 -285 -109 -40 -358 -107 -488 -130 -562 -101 -1156
-83 -1680 49 -324 82 -616 223 -706 341 l-29 37 -3 1734 -2 1734 62 -35 c35
-19 106 -51 158 -71z m3578 -371 c382 -111 686 -403 812 -782 49 -147 63 -234
64 -392 0 -162 -12 -251 -56 -390 -102 -323 -341 -600 -640 -740 -97 -45 -229
-85 -322 -98 l-66 -9 0 241 0 241 71 17 c251 61 456 267 531 535 29 106 29
275 0 384 -70 261 -282 473 -534 535 l-68 17 0 240 0 240 61 -7 c34 -4 100
-18 147 -32z m-21 -740 c142 -98 226 -265 225 -448 -1 -211 -116 -398 -297
-482 -38 -18 -80 -35 -92 -39 l-23 -6 0 530 0 531 66 -24 c37 -14 91 -41 121
-62z"/>
</g>
</svg>
