<?xml version="1.0" standalone="no"?>
<!DOCTYPE svg PUBLIC "-//W3C//DTD SVG 20010904//EN"
 "http://www.w3.org/TR/2001/REC-SVG-20010904/DTD/svg10.dtd">
<svg version="1.0" xmlns="http://www.w3.org/2000/svg"
 width="512.000000pt" height="512.000000pt" viewBox="0 0 512.000000 512.000000"
 preserveAspectRatio="xMidYMid meet">

<g transform="translate(0.000000,512.000000) scale(0.100000,-0.100000)"
fill="#000000" stroke="none">
<path d="M1427 5109 c-147 -35 -268 -163 -297 -314 -8 -44 -10 -530 -8 -1790
l3 -1730 23 -58 c28 -69 85 -142 139 -180 76 -53 137 -70 271 -75 l122 -4 0
-404 0 -404 -134 0 c-116 0 -137 -3 -157 -19 -32 -26 -32 -86 0 -112 22 -18
64 -19 1171 -19 1107 0 1149 1 1171 19 32 26 32 86 0 112 -20 16 -41 19 -157
19 l-134 0 0 405 0 405 95 0 c111 0 182 13 249 47 59 30 137 106 165 161 53
104 51 21 51 1869 0 1215 -3 1727 -11 1765 -26 124 -107 224 -227 281 l-67 32
-1115 2 c-628 1 -1131 -3 -1153 -8z m2296 -172 c60 -36 103 -94 117 -160 8
-37 10 -536 8 -1767 l-3 -1715 -30 -53 c-33 -61 -90 -106 -156 -122 -31 -7
-371 -10 -1124 -8 -1045 3 -1081 4 -1119 22 -50 25 -97 72 -122 122 -19 38
-19 78 -19 1784 l0 1746 25 48 c29 56 80 101 136 121 33 12 221 14 1139 12
l1100 -2 48 -28z m-433 -4382 l0 -405 -730 0 -730 0 0 405 0 405 730 0 730 0
0 -405z"/>
<path d="M1482 4793 c-7 -3 -19 -18 -27 -33 -13 -25 -15 -247 -15 -1719 0
-1217 3 -1697 11 -1714 6 -14 22 -30 36 -36 34 -16 2112 -16 2146 0 14 6 30
22 36 36 16 34 16 2752 0 2786 -11 24 -47 47 -73 47 -7 0 -25 -9 -40 -21 l-26
-20 0 -683 0 -682 -45 -44 -45 -44 -202 200 c-215 212 -233 224 -324 224 -66
-1 -123 -35 -222 -133 l-92 -92 -233 232 c-243 243 -282 272 -361 273 -86 0
-113 -16 -262 -162 -77 -76 -143 -138 -147 -138 -4 0 -7 356 -7 790 l0 790
970 0 970 0 0 -138 c0 -132 1 -140 23 -160 29 -27 67 -28 98 -3 23 19 24 24
27 192 4 188 1 210 -28 239 -20 20 -37 20 -1087 19 -588 0 -1074 -3 -1081 -6z
m1028 -2047 c261 -261 491 -482 510 -492 51 -26 153 -25 205 3 22 12 96 78
165 147 69 69 128 126 132 126 5 0 8 -247 8 -550 l0 -550 -387 0 -387 0 -201
200 c-174 173 -205 200 -232 200 -43 0 -74 -28 -75 -68 -1 -30 13 -48 140
-175 78 -78 142 -146 142 -150 0 -4 -211 -7 -470 -7 l-470 0 0 228 0 227 103
102 c57 57 114 105 129 108 37 9 62 -6 150 -93 62 -60 83 -75 107 -75 43 0 71
28 71 71 0 29 -11 46 -77 114 -105 107 -148 132 -232 132 -79 0 -125 -21 -191
-88 -24 -25 -48 -46 -52 -46 -4 0 -8 166 -8 368 l0 368 188 187 c171 169 191
187 222 187 32 0 69 -34 510 -474z m634 4 l191 -190 -92 -91 c-129 -128 -115
-132 -353 106 l-185 185 91 90 c131 130 113 135 348 -100z"/>
<path d="M2460 4304 c-357 -96 -398 -576 -62 -741 51 -25 67 -28 162 -28 98 0
109 2 171 32 329 161 280 645 -76 737 -72 19 -123 19 -195 0z m206 -162 c87
-45 136 -126 136 -224 0 -134 -106 -238 -242 -238 -213 0 -324 255 -177 408
77 81 190 102 283 54z"/>
</g>
</svg>
