<?xml version="1.0" standalone="no"?>
<!DOCTYPE svg PUBLIC "-//W3C//DTD SVG 20010904//EN"
 "http://www.w3.org/TR/2001/REC-SVG-20010904/DTD/svg10.dtd">
<svg version="1.0" xmlns="http://www.w3.org/2000/svg"
 width="512.000000pt" height="512.000000pt" viewBox="0 0 512.000000 512.000000"
 preserveAspectRatio="xMidYMid meet">

<g transform="translate(0.000000,512.000000) scale(0.100000,-0.100000)"
fill="#000000" stroke="none">
<path d="M1222 4863 c-12 -10 -82 -124 -157 -254 -102 -178 -135 -245 -135
-270 1 -29 105 -182 655 -958 l655 -924 0 -627 0 -628 -108 -4 c-100 -3 -111
-5 -144 -30 -58 -44 -68 -78 -68 -225 0 -160 17 -244 72 -353 106 -211 331
-350 568 -350 237 0 465 141 569 350 57 116 73 203 69 370 -3 123 -5 138 -26
168 -39 54 -87 72 -197 72 l-95 0 0 628 0 629 651 919 c358 505 655 930 661
944 6 16 6 32 -2 48 -24 53 -284 478 -302 495 -19 16 -97 17 -1333 17 -1236 0
-1314 -1 -1333 -17z m2456 -151 c-1 -4 -50 -76 -108 -160 l-105 -151 -910 2
-909 2 -108 150 c-59 83 -107 153 -108 158 0 4 507 7 1126 7 619 0 1124 -4
1122 -8z m-1674 -1089 l716 -1012 0 -466 0 -465 -160 0 -160 0 0 413 0 414
-52 74 c-28 41 -319 452 -646 914 -327 462 -595 844 -596 850 -2 17 167 306
174 298 4 -5 330 -463 724 -1020z m1926 873 c46 -77 83 -145 83 -151 0 -9
-1126 -1608 -1153 -1638 -6 -6 -184 232 -198 264 -5 13 1170 1681 1178 1672 4
-4 44 -71 90 -147z m-973 -815 c-216 -308 -395 -559 -399 -558 -8 2 -788 1102
-788 1111 0 3 355 6 789 6 l790 0 -392 -559z m-237 -2441 l0 -280 -160 0 -160
0 0 280 0 280 160 0 160 0 0 -280z m-478 -269 c3 -56 9 -75 32 -106 47 -62 71
-67 301 -63 187 3 206 5 231 24 53 39 68 70 72 144 l4 70 79 0 79 0 0 -108 c0
-173 -38 -279 -137 -383 -61 -64 -141 -111 -228 -134 -250 -65 -513 94 -580
350 -9 36 -15 102 -15 167 l0 108 79 0 79 0 4 -69z"/>
</g>
</svg>
