<?xml version="1.0" standalone="no"?>
<!DOCTYPE svg PUBLIC "-//W3C//DTD SVG 20010904//EN"
 "http://www.w3.org/TR/2001/REC-SVG-20010904/DTD/svg10.dtd">
<svg version="1.0" xmlns="http://www.w3.org/2000/svg"
 width="512.000000pt" height="512.000000pt" viewBox="0 0 512.000000 512.000000"
 preserveAspectRatio="xMidYMid meet">

<g transform="translate(0.000000,512.000000) scale(0.100000,-0.100000)"
fill="#000000" stroke="none">
<path d="M1510 4679 c-219 -28 -480 -151 -718 -336 -112 -87 -311 -280 -422
-409 -153 -178 -352 -454 -366 -507 -12 -50 48 -192 139 -327 58 -87 283 -316
376 -384 39 -28 74 -46 91 -46 19 0 83 39 206 123 99 68 192 132 208 142 l29
19 -7 -259 c-14 -546 -26 -1288 -27 -1745 l-1 -474 26 -23 27 -23 1489 0 1489
0 27 23 26 23 -1 474 c-1 457 -13 1199 -27 1745 l-7 259 29 -19 c16 -10 109
-74 208 -142 123 -84 187 -123 206 -123 17 0 52 18 91 46 93 68 318 297 376
384 91 135 151 277 139 327 -8 30 -101 171 -205 307 -359 476 -768 802 -1144
910 -124 36 -223 46 -458 46 -205 0 -206 0 -233 -25 -19 -18 -26 -34 -26 -61
0 -58 -29 -163 -63 -227 -79 -150 -256 -257 -427 -257 -171 0 -348 107 -427
257 -34 64 -63 169 -63 227 0 27 -7 43 -26 61 l-27 25 -221 -1 c-122 -1 -250
-5 -286 -10z m75 -211 c22 -158 133 -415 194 -448 51 -27 121 11 121 65 0 14
-24 72 -54 128 -51 95 -96 229 -96 284 0 22 3 23 80 23 79 0 80 0 86 -27 89
-406 482 -632 864 -499 211 73 372 263 424 499 6 27 7 27 86 27 l80 0 0 -28
c0 -46 -39 -171 -76 -245 -49 -97 -85 -148 -164 -225 -84 -84 -197 -151 -320
-194 -90 -30 -103 -32 -240 -32 -187 0 -277 24 -442 117 -103 58 -158 49 -174
-31 -6 -29 -2 -37 34 -71 54 -52 210 -126 329 -158 123 -32 321 -36 447 -9
294 64 540 255 675 523 43 85 84 215 96 301 l7 54 52 -7 c316 -43 699 -301
1039 -699 37 -43 67 -84 67 -90 0 -6 -20 -46 -45 -88 -59 -101 -60 -145 -3
-174 47 -24 87 -5 127 61 18 30 37 53 41 50 4 -3 35 -45 69 -94 l61 -89 -45
-89 c-54 -108 -146 -224 -266 -336 -133 -125 -119 -122 -236 -42 -54 37 -101
71 -105 74 -4 4 33 40 83 81 113 93 139 123 139 161 0 43 -15 65 -50 78 -42
14 -63 4 -143 -67 -79 -70 -171 -142 -181 -142 -4 0 -37 20 -74 45 -71 48 -86
52 -125 34 -50 -23 -50 -22 -38 -525 12 -485 31 -1657 31 -1916 l0 -148 -1380
0 -1380 0 0 148 c0 259 19 1431 31 1916 12 503 12 502 -38 525 -39 18 -54 14
-126 -35 -38 -25 -74 -43 -80 -41 -7 2 -50 35 -97 73 -169 137 -331 320 -412
467 -21 38 -38 73 -38 77 0 4 30 43 67 86 324 379 668 620 984 689 106 23 106
23 114 -37z m-1240 -950 c89 -145 265 -338 424 -463 34 -26 58 -51 54 -55 -4
-4 -52 -38 -106 -75 -117 -80 -103 -83 -236 42 -120 112 -212 228 -266 336
l-45 89 32 46 c44 66 99 142 102 142 2 0 20 -28 41 -62z"/>
</g>
</svg>
