<?xml version="1.0" standalone="no"?>
<!DOCTYPE svg PUBLIC "-//W3C//DTD SVG 20010904//EN"
 "http://www.w3.org/TR/2001/REC-SVG-20010904/DTD/svg10.dtd">
<svg version="1.0" xmlns="http://www.w3.org/2000/svg"
 width="512.000000pt" height="512.000000pt" viewBox="0 0 512.000000 512.000000"
 preserveAspectRatio="xMidYMid meet">

<g transform="translate(0.000000,512.000000) scale(0.100000,-0.100000)"
fill="#000000" stroke="none">
<path d="M1755 5095 c-14 -13 -25 -36 -25 -50 0 -31 41 -75 70 -75 19 0 20 -6
20 -119 0 -105 -2 -120 -17 -125 -10 -3 -142 -35 -293 -71 -309 -74 -345 -89
-395 -169 l-30 -49 -3 -451 c-2 -308 0 -467 8 -503 14 -65 55 -123 121 -170
66 -47 79 -79 79 -195 0 -104 -21 -165 -66 -189 -43 -23 -112 -107 -128 -157
-15 -43 -16 -178 -14 -1283 l3 -1234 22 -47 c30 -66 105 -143 172 -175 l56
-28 780 0 780 0 60 28 c76 36 147 110 176 185 21 52 23 77 27 297 4 263 -1
304 -43 323 -36 16 -48 15 -78 -8 l-26 -20 -3 -259 -3 -258 -30 -48 c-20 -32
-45 -56 -74 -72 l-44 -23 -736 0 c-694 0 -738 1 -776 19 -48 22 -79 54 -100
103 -13 33 -15 177 -15 1240 0 1169 1 1204 19 1235 11 17 39 45 63 61 92 63
128 152 128 312 0 156 -38 243 -134 310 -62 42 -76 73 -76 165 l0 75 888 -2
887 -3 3 -55 c4 -85 -14 -127 -78 -178 -62 -51 -105 -108 -120 -161 -16 -58
-13 -271 5 -322 20 -57 57 -103 115 -145 85 -61 80 -7 80 -912 l0 -799 23 -21
c38 -36 88 -28 112 19 13 24 15 143 15 807 0 486 -4 800 -10 833 -14 72 -54
134 -119 184 -75 58 -80 70 -81 209 l0 118 38 37 c21 20 54 51 74 69 l37 33
24 -43 c13 -24 54 -97 92 -163 189 -337 306 -468 468 -525 232 -82 407 96 343
350 -38 148 -107 243 -365 501 -185 185 -318 301 -432 376 l-69 46 0 218 c0
295 -12 343 -107 415 -41 31 -114 52 -548 152 l-80 19 -3 121 c-2 111 -1 122
15 122 25 1 50 22 62 51 11 30 -8 83 -34 93 -9 3 -167 6 -351 6 l-335 0 -24
-25z m515 -233 l0 -107 -150 0 -150 0 0 108 0 107 150 0 150 0 0 -108z m-15
-262 c103 -11 97 -10 435 -90 140 -34 265 -68 277 -75 33 -22 44 -78 41 -205
l-3 -115 -622 -3 -622 -2 -20 -26 c-34 -43 -26 -86 20 -109 24 -13 122 -15
639 -15 l610 0 0 -70 0 -70 -890 0 -890 0 0 69 0 69 126 4 c118 3 127 4 145
27 25 30 24 62 -2 95 -20 26 -22 26 -145 26 l-124 0 0 140 c0 197 -21 180 330
264 407 97 497 108 695 86z m1045 -966 c58 -49 175 -158 261 -244 263 -262
323 -354 324 -488 0 -69 -2 -75 -29 -99 -25 -21 -37 -24 -77 -21 -98 10 -190
83 -288 228 -79 116 -190 309 -267 462 -61 121 -64 132 -64 198 0 85 -7 87
140 -36z"/>
<path d="M1636 2575 c-57 -20 -87 -45 -116 -96 l-25 -44 -3 -883 c-1 -577 1
-896 8 -921 15 -57 51 -103 100 -131 l45 -25 440 -3 c307 -2 456 0 493 8 61
13 113 54 143 111 18 37 19 67 19 939 0 995 4 926 -63 998 -57 59 -81 62 -566
62 -348 -1 -444 -4 -475 -15z m932 -151 l22 -15 0 -879 0 -879 -22 -15 c-20
-14 -80 -16 -455 -16 -420 0 -434 1 -453 20 -20 20 -20 33 -20 888 0 902 -1
891 40 905 8 3 206 6 440 6 370 1 428 -1 448 -15z"/>
<path d="M1877 2119 c-46 -27 -41 -105 9 -128 16 -7 101 -11 240 -11 215 0
215 0 239 25 32 31 33 74 2 103 -23 21 -31 22 -248 22 -138 0 -231 -5 -242
-11z"/>
<path d="M1872 1743 c-12 -10 -24 -30 -28 -45 -5 -22 0 -34 25 -58 l31 -31
226 3 c224 3 226 3 245 27 26 32 24 73 -4 99 -22 21 -31 22 -249 22 -200 0
-228 -2 -246 -17z"/>
<path d="M1867 1373 c-8 -10 -19 -30 -22 -45 -6 -22 -1 -33 24 -58 l31 -31
226 3 c224 3 226 3 245 27 25 30 24 72 -1 99 -20 21 -27 22 -254 22 -209 0
-235 -2 -249 -17z"/>
<path d="M1867 1003 c-29 -33 -31 -68 -4 -99 l25 -29 199 -3 c219 -4 255 0
284 29 25 25 24 74 -1 99 -19 19 -33 20 -253 20 -210 0 -236 -2 -250 -17z"/>
</g>
</svg>
